<svg xmlns="http://www.w3.org/2000/svg" viewBox="0 0 400 400" fill="none">
  <defs>
    <linearGradient id="techGradient" x1="0%" y1="0%" x2="100%" y2="100%">
      <stop offset="0%" style="stop-color:#E2E8F0;stop-opacity:1" />
      <stop offset="100%" style="stop-color:#CBD5E1;stop-opacity:1" />
    </linearGradient>
  </defs>

  <rect width="400" height="400" fill="url(#techGradient)"/>

  <!-- Code brackets and symbols -->
  <g transform="translate(200, 200)">
    <!-- Left bracket < -->
    <path d="M -80 -60 L -100 0 L -80 60"
          stroke="#94A3B8"
          stroke-width="12"
          fill="none"
          stroke-linecap="round"
          stroke-linejoin="round"/>

    <!-- Right bracket > -->
    <path d="M 80 -60 L 100 0 L 80 60"
          stroke="#94A3B8"
          stroke-width="12"
          fill="none"
          stroke-linecap="round"
          stroke-linejoin="round"/>

    <!-- Slash / -->
    <line x1="-30" y1="70" x2="30" y2="-70"
          stroke="#CBD5E1"
          stroke-width="14"
          stroke-linecap="round"/>

    <!-- Dots representing code lines -->
    <g opacity="0.6">
      <rect x="-50" y="-35" width="100" height="8" rx="4" fill="#94A3B8"/>
      <rect x="-50" y="-15" width="80" height="8" rx="4" fill="#94A3B8"/>
      <rect x="-50" y="5" width="90" height="8" rx="4" fill="#94A3B8"/>
      <rect x="-50" y="25" width="70" height="8" rx="4" fill="#94A3B8"/>
    </g>

    <!-- Gear icon in corner -->
    <g transform="translate(60, -60) scale(0.6)">
      <circle cx="0" cy="0" r="25" fill="#CBD5E1"/>
      <circle cx="0" cy="0" r="12" fill="#94A3B8"/>
      <!-- Gear teeth -->
      <rect x="-5" y="-32" width="10" height="10" fill="#CBD5E1"/>
      <rect x="-5" y="22" width="10" height="10" fill="#CBD5E1"/>
      <rect x="-32" y="-5" width="10" height="10" fill="#CBD5E1"/>
      <rect x="22" y="-5" width="10" height="10" fill="#CBD5E1"/>
    </g>
  </g>
</svg>
