<svg xmlns="http://www.w3.org/2000/svg" viewBox="0 0 400 300" fill="none">
  <defs>
    <linearGradient id="bgGrad5" x1="0%" y1="0%" x2="100%" y2="100%">
      <stop offset="0%" style="stop-color:#F1F5F9;stop-opacity:1" />
      <stop offset="100%" style="stop-color:#E2E8F0;stop-opacity:1" />
    </linearGradient>
  </defs>

  <rect width="400" height="300" fill="url(#bgGrad5)"/>

  <!-- Broom sweeping clean -->
  <g transform="translate(200, 150)">
    <!-- Broom handle -->
    <line x1="-60" y1="-80" x2="40" y2="20" stroke="#94A3B8" stroke-width="8" stroke-linecap="round"/>

    <!-- Broom brush -->
    <g transform="rotate(45 30 10)">
      <rect x="20" y="0" width="40" height="15" rx="3" fill="#CBD5E1"/>
      <line x1="25" y1="15" x2="25" y2="30" stroke="#CBD5E1" stroke-width="2"/>
      <line x1="35" y1="15" x2="35" y2="30" stroke="#CBD5E1" stroke-width="2"/>
      <line x1="45" y1="15" x2="45" y2="30" stroke="#CBD5E1" stroke-width="2"/>
      <line x1="55" y1="15" x2="55" y2="30" stroke="#CBD5E1" stroke-width="2"/>
    </g>

    <!-- Sparkles -->
    <circle cx="-40" cy="-40" r="4" fill="#94A3B8" opacity="0.6"/>
    <circle cx="-10" cy="-60" r="3" fill="#94A3B8" opacity="0.6"/>
    <circle cx="20" cy="-50" r="4" fill="#94A3B8" opacity="0.6"/>
    <path d="M -30 -20 L -28 -15 L -23 -17 L -25 -12 L -20 -10 L -25 -8 L -23 -3 L -28 -5 L -30 0 L -32 -5 L -37 -3 L -35 -8 L -40 -10 L -35 -12 L -37 -17 L -32 -15 Z" fill="#94A3B8" opacity="0.5"/>
  </g>
</svg>
